<svg xmlns="http://www.w3.org/2000/svg" xmlns:xlink="http://www.w3.org/1999/xlink" version="1.1" style="shape-rendering:geometricPrecision; text-rendering:geometricPrecision; image-rendering:optimizeQuality; fill-rule:evenodd; clip-rule:evenodd" viewBox="175.5 183.49 145.99 130.02">
<g><path style="opacity:0.329" fill="#eed1c8" d="M 201.5,184.5 C 197.466,184.505 193.466,184.838 189.5,185.5C 191.679,184.074 194.179,183.408 197,183.5C 198.707,183.508 200.207,183.842 201.5,184.5 Z"/></g>
<g><path style="opacity:1" fill="#d38672" d="M 201.5,184.5 C 201.833,184.5 202.167,184.5 202.5,184.5C 206.484,186.495 210.151,188.995 213.5,192C 222.345,202.011 231.678,211.511 241.5,220.5C 244.645,221.098 246.978,219.765 248.5,216.5C 254.833,210.5 261.167,204.5 267.5,198.5C 269.587,197.415 270.92,195.749 271.5,193.5C 275.115,188.889 279.782,185.889 285.5,184.5C 296.72,183.565 304.553,188.232 309,198.5C 310.662,207.422 309.329,215.755 305,223.5C 285.965,242.368 267.132,261.368 248.5,280.5C 247.5,280.833 246.833,281.5 246.5,282.5C 245.341,284.377 243.674,284.877 241.5,284C 221.667,264.167 201.833,244.333 182,224.5C 180.295,222.423 179.128,220.09 178.5,217.5C 177.167,210.5 177.167,203.5 178.5,196.5C 180.262,195.738 181.262,194.404 181.5,192.5C 181.5,191.833 181.833,191.5 182.5,191.5C 184.167,190.5 185.5,189.167 186.5,187.5C 188.027,187.573 189.027,186.906 189.5,185.5C 193.466,184.838 197.466,184.505 201.5,184.5 Z"/></g>
<g><path style="opacity:1" fill="#757373" d="M 202.5,184.5 C 209.557,182.354 215.89,183.854 221.5,189C 228.036,195.369 234.369,201.869 240.5,208.5C 241.167,211.167 242.833,212.833 245.5,213.5C 246.833,214.167 247.833,215.167 248.5,216.5C 246.978,219.765 244.645,221.098 241.5,220.5C 231.678,211.511 222.345,202.011 213.5,192C 210.151,188.995 206.484,186.495 202.5,184.5 Z"/></g>
<g><path style="opacity:1" fill="#747272" d="M 285.5,184.5 C 291.653,183.347 297.986,183.18 304.5,184C 308.181,184.872 311.181,186.706 313.5,189.5C 313.738,191.404 314.738,192.738 316.5,193.5C 317.79,194.058 318.623,195.058 319,196.5C 322.508,205.463 321.841,214.13 317,222.5C 296.832,242.335 276.999,262.501 257.5,283C 256.069,283.465 254.903,284.299 254,285.5C 252.855,284.364 251.688,283.364 250.5,282.5C 250.167,281.5 249.5,280.833 248.5,280.5C 267.132,261.368 285.965,242.368 305,223.5C 309.329,215.755 310.662,207.422 309,198.5C 304.553,188.232 296.72,183.565 285.5,184.5 Z"/></g>
<g><path style="opacity:0.694" fill="#eac5ba" d="M 189.5,185.5 C 189.027,186.906 188.027,187.573 186.5,187.5C 186.973,186.094 187.973,185.427 189.5,185.5 Z"/></g>
<g><path style="opacity:0.561" fill="#ebc8be" d="M 186.5,187.5 C 185.5,189.167 184.167,190.5 182.5,191.5C 182.833,189.167 184.167,187.833 186.5,187.5 Z"/></g>
<g><path style="opacity:0.918" fill="#a5a5a5" d="M 313.5,189.5 C 315.262,190.262 316.262,191.596 316.5,193.5C 314.738,192.738 313.738,191.404 313.5,189.5 Z"/></g>
<g><path style="opacity:0.992" fill="#e4b2a4" d="M 181.5,192.5 C 181.262,194.404 180.262,195.738 178.5,196.5C 178.738,194.596 179.738,193.262 181.5,192.5 Z"/></g>
<g><path style="opacity:0.78" fill="#e6bbae" d="M 271.5,193.5 C 270.92,195.749 269.587,197.415 267.5,198.5C 268.08,196.251 269.413,194.585 271.5,193.5 Z"/></g>
<g><path style="opacity:0.739" fill="#e4b7aa" d="M 178.5,196.5 C 177.167,203.5 177.167,210.5 178.5,217.5C 176.97,214.305 176.304,210.805 176.5,207C 176.304,203.195 176.97,199.695 178.5,196.5 Z"/></g>
<g><path style="opacity:0.784" fill="#b2b2b2" d="M 240.5,208.5 C 242.5,209.833 244.167,211.5 245.5,213.5C 242.833,212.833 241.167,211.167 240.5,208.5 Z"/></g>
<g><path style="opacity:0.996" fill="#929191" d="M 200.5,254.5 C 197.327,253.632 194.327,253.632 191.5,254.5C 190.833,254.5 190.167,254.5 189.5,254.5C 188.833,253.833 188.167,253.167 187.5,252.5C 188.097,251.861 188.93,251.528 190,251.5C 193.782,251.947 197.282,252.947 200.5,254.5 Z"/></g>
<g><path style="opacity:1" fill="#d28671" d="M 189.5,254.5 C 190.167,254.5 190.833,254.5 191.5,254.5C 206.1,260.602 215.6,271.268 220,286.5C 220.667,292.167 220.667,297.833 220,303.5C 216.673,311.123 210.839,314.123 202.5,312.5C 196.134,311.652 190.467,309.152 185.5,305C 182.12,301.79 179.787,297.957 178.5,293.5C 177.575,280.196 177.242,266.863 177.5,253.5C 181.534,253.505 185.534,253.838 189.5,254.5 Z"/></g>
<g><path style="opacity:1" fill="#71706f" d="M 200.5,254.5 C 213.268,258.268 222.268,266.268 227.5,278.5C 227.737,281.647 228.57,284.647 230,287.5C 230.499,293.157 230.666,298.824 230.5,304.5C 228.843,308.678 225.843,311.511 221.5,313C 214.986,313.82 208.653,313.653 202.5,312.5C 210.839,314.123 216.673,311.123 220,303.5C 220.667,297.833 220.667,292.167 220,286.5C 215.6,271.268 206.1,260.602 191.5,254.5C 194.327,253.632 197.327,253.632 200.5,254.5 Z"/></g>
<g><path style="opacity:1" fill="#d38772" d="M 309.5,252.5 C 309.5,264.833 309.5,277.167 309.5,289.5C 306.665,300.334 299.998,307.668 289.5,311.5C 285.232,312.373 280.898,312.706 276.5,312.5C 271.353,311.527 267.853,308.527 266,303.5C 265.222,298.416 265.389,293.416 266.5,288.5C 267.924,286.485 268.59,284.152 268.5,281.5C 268.557,280.391 268.89,279.391 269.5,278.5C 270.906,278.027 271.573,277.027 271.5,275.5C 271.845,272.802 273.178,270.802 275.5,269.5C 277.262,268.738 278.262,267.404 278.5,265.5C 286.863,256.706 297.197,252.372 309.5,252.5 Z"/></g>
<g><path style="opacity:1" fill="#727171" d="M 296.5,312.5 C 293.941,312.802 291.607,312.468 289.5,311.5C 299.998,307.668 306.665,300.334 309.5,289.5C 310.495,277.678 310.828,265.678 310.5,253.5C 311.791,253.737 312.791,253.404 313.5,252.5C 316.002,251.221 318.502,251.221 321,252.5C 321.9,265.548 321.567,278.548 320,291.5C 316.06,302.944 308.226,309.944 296.5,312.5 Z"/></g>
<g><path style="opacity:1" fill="#b89990" d="M 309.5,252.5 C 310.833,252.5 312.167,252.5 313.5,252.5C 312.791,253.404 311.791,253.737 310.5,253.5C 310.828,265.678 310.495,277.678 309.5,289.5C 309.5,277.167 309.5,264.833 309.5,252.5 Z"/></g>
<g><path style="opacity:0.969" fill="#e2afa0" d="M 187.5,252.5 C 188.167,253.167 188.833,253.833 189.5,254.5C 185.534,253.838 181.534,253.505 177.5,253.5C 177.242,266.863 177.575,280.196 178.5,293.5C 177.732,292.737 177.232,291.737 177,290.5C 176.551,284.329 176.051,278.162 175.5,272C 176.567,266.129 176.567,260.295 175.5,254.5C 176.27,252.728 177.603,251.728 179.5,251.5C 182.115,252.269 184.781,252.603 187.5,252.5 Z"/></g>
<g><path style="opacity:0.973" fill="#e4b5a8" d="M 278.5,265.5 C 278.262,267.404 277.262,268.738 275.5,269.5C 275.738,267.596 276.738,266.262 278.5,265.5 Z"/></g>
<g><path style="opacity:0.506" fill="#e5bbaf" d="M 271.5,275.5 C 271.573,277.027 270.906,278.027 269.5,278.5C 269.427,276.973 270.094,275.973 271.5,275.5 Z"/></g>
<g><path style="opacity:1" fill="#9f9f9f" d="M 227.5,278.5 C 230.646,283.968 232.312,289.968 232.5,296.5C 232.432,299.438 231.766,302.105 230.5,304.5C 230.666,298.824 230.499,293.157 230,287.5C 228.57,284.647 227.737,281.647 227.5,278.5 Z"/></g>
<g><path style="opacity:0.108" fill="#f0eae8" d="M 248.5,280.5 C 249.5,280.833 250.167,281.5 250.5,282.5C 249.167,282.5 247.833,282.5 246.5,282.5C 246.833,281.5 247.5,280.833 248.5,280.5 Z"/></g>
<g><path style="opacity:0.992" fill="#e4b4a5" d="M 268.5,281.5 C 268.59,284.152 267.924,286.485 266.5,288.5C 266.41,285.848 267.076,283.515 268.5,281.5 Z"/></g>
<g><path style="opacity:0.618" fill="#bfb5b2" d="M 289.5,311.5 C 291.607,312.468 293.941,312.802 296.5,312.5C 289.833,313.833 283.167,313.833 276.5,312.5C 280.898,312.706 285.232,312.373 289.5,311.5 Z"/></g>
</svg>