<?xml version="1.0" encoding="UTF-8"?>
<svg xmlns="http://www.w3.org/2000/svg" xmlns:xlink="http://www.w3.org/1999/xlink" width="48px" height="48px" viewBox="0 0 48 48" version="1.1">
<g id="surface1">
<path style=" stroke:none;fill-rule:nonzero;fill:rgb(100%,98.039216%,21.568627%);fill-opacity:1;" d="M 45 24 C 45 35.597656 35.597656 45 24 45 C 12.402344 45 3 35.597656 3 24 C 3 12.402344 12.402344 3 24 3 C 35.597656 3 45 12.402344 45 24 Z M 45 24 "/>
<path style=" stroke:none;fill-rule:evenodd;fill:rgb(0%,0%,0%);fill-opacity:1;" d="M 31.539062 12.277344 C 30.089844 10.453125 27.699219 9 24.019531 9 C 20.863281 9.03125 14.554688 10.777344 14.554688 17.511719 C 14.554688 18.492188 14.632812 19.8125 14.703125 20.78125 C 14.621094 20.757812 14.523438 20.714844 14.367188 20.640625 L 14.34375 20.628906 C 14.070312 20.496094 13.648438 20.292969 13.066406 20.292969 C 12.476562 20.292969 11.902344 20.527344 11.480469 20.867188 C 11.058594 21.210938 10.699219 21.734375 10.699219 22.367188 C 10.699219 23.15625 11.144531 23.683594 11.667969 24.019531 C 12.128906 24.320312 12.714844 24.511719 13.175781 24.664062 L 13.222656 24.675781 C 13.714844 24.839844 14.078125 24.964844 14.328125 25.117188 C 14.523438 25.238281 14.550781 25.316406 14.554688 25.390625 C 14.550781 25.398438 14.546875 25.421875 14.535156 25.457031 C 14.507812 25.535156 14.460938 25.636719 14.398438 25.761719 C 14.269531 26.015625 14.078125 26.324219 13.855469 26.65625 C 13.402344 27.324219 12.851562 28.007812 12.4375 28.40625 C 12.03125 28.796875 11.363281 29.285156 10.664062 29.671875 C 10.320312 29.863281 9.980469 30.023438 9.675781 30.132812 C 9.363281 30.246094 9.136719 30.289062 8.992188 30.289062 C 8.882812 30.289062 8.785156 30.3125 8.742188 30.320312 C 8.683594 30.335938 8.621094 30.355469 8.5625 30.378906 C 8.441406 30.425781 8.296875 30.492188 8.152344 30.589844 C 7.878906 30.773438 7.5 31.140625 7.5 31.726562 C 7.5 32.03125 7.570312 32.289062 7.695312 32.511719 C 7.804688 32.707031 7.941406 32.855469 8.023438 32.941406 L 8.035156 32.953125 L 8.054688 32.976562 C 8.496094 33.453125 9.226562 33.78125 9.933594 34.007812 C 10.539062 34.199219 11.21875 34.347656 11.882812 34.433594 C 11.890625 34.476562 11.902344 34.519531 11.910156 34.570312 L 11.914062 34.589844 C 11.957031 34.785156 12.011719 35.046875 12.09375 35.285156 C 12.171875 35.511719 12.308594 35.847656 12.59375 36.085938 C 12.957031 36.390625 13.429688 36.417969 13.738281 36.417969 C 14.070312 36.417969 14.457031 36.371094 14.824219 36.324219 L 14.855469 36.324219 C 15.375 36.261719 15.914062 36.195312 16.476562 36.195312 C 17.5 36.195312 18.15625 36.621094 19.183594 37.324219 L 19.191406 37.332031 C 19.546875 37.574219 19.945312 37.847656 20.398438 38.113281 C 21.917969 39.011719 23.152344 39.003906 23.851562 39 C 23.898438 39 23.941406 39 23.980469 39 C 24.023438 39 24.066406 39 24.113281 39 C 24.816406 39.003906 26.082031 39.011719 27.601562 38.113281 C 28.054688 37.847656 28.453125 37.574219 28.808594 37.332031 L 28.816406 37.324219 C 29.84375 36.621094 30.5 36.195312 31.523438 36.195312 C 32.085938 36.195312 32.625 36.261719 33.144531 36.324219 L 33.175781 36.324219 C 33.542969 36.371094 33.929688 36.417969 34.261719 36.417969 C 34.570312 36.417969 35.042969 36.390625 35.40625 36.085938 C 35.691406 35.847656 35.828125 35.511719 35.90625 35.285156 C 35.988281 35.046875 36.042969 34.785156 36.085938 34.589844 L 36.089844 34.570312 C 36.097656 34.519531 36.109375 34.476562 36.117188 34.433594 C 36.78125 34.347656 37.460938 34.199219 38.066406 34.007812 C 38.773438 33.78125 39.503906 33.449219 39.945312 32.976562 L 39.964844 32.953125 L 39.976562 32.941406 C 40.058594 32.855469 40.195312 32.707031 40.304688 32.511719 C 40.429688 32.289062 40.5 32.03125 40.5 31.726562 C 40.5 31.140625 40.121094 30.773438 39.847656 30.589844 C 39.703125 30.492188 39.558594 30.425781 39.4375 30.378906 C 39.378906 30.355469 39.316406 30.335938 39.257812 30.320312 C 39.214844 30.3125 39.117188 30.289062 39.003906 30.289062 C 38.863281 30.289062 38.636719 30.246094 38.324219 30.132812 C 38.019531 30.023438 37.679688 29.863281 37.335938 29.671875 C 36.636719 29.285156 35.96875 28.796875 35.5625 28.40625 C 35.148438 28.007812 34.597656 27.324219 34.144531 26.65625 C 33.921875 26.324219 33.730469 26.015625 33.601562 25.761719 C 33.539062 25.636719 33.492188 25.535156 33.464844 25.457031 C 33.453125 25.421875 33.449219 25.398438 33.445312 25.390625 C 33.449219 25.316406 33.476562 25.238281 33.671875 25.117188 C 33.921875 24.964844 34.285156 24.839844 34.78125 24.675781 L 34.824219 24.664062 C 35.285156 24.511719 35.871094 24.320312 36.332031 24.019531 C 36.855469 23.683594 37.300781 23.15625 37.300781 22.367188 C 37.300781 21.734375 36.941406 21.210938 36.519531 20.867188 C 36.097656 20.527344 35.523438 20.292969 34.933594 20.292969 C 34.351562 20.292969 33.929688 20.496094 33.65625 20.628906 L 33.632812 20.640625 C 33.476562 20.714844 33.378906 20.757812 33.296875 20.78125 C 33.367188 19.8125 33.445312 18.492188 33.445312 17.511719 C 33.445312 16.175781 32.957031 14.070312 31.539062 12.277344 Z M 17.675781 13.160156 C 16.472656 14.664062 16.0625 16.449219 16.0625 17.511719 C 16.0625 18.496094 16.144531 19.863281 16.214844 20.84375 C 16.238281 21.167969 16.171875 21.546875 15.886719 21.847656 C 15.601562 22.152344 15.207031 22.253906 14.859375 22.253906 C 14.351562 22.253906 13.96875 22.066406 13.722656 21.949219 L 13.695312 21.9375 C 13.421875 21.804688 13.277344 21.742188 13.066406 21.742188 C 12.871094 21.742188 12.636719 21.828125 12.449219 21.976562 C 12.261719 22.128906 12.207031 22.28125 12.207031 22.367188 C 12.207031 22.539062 12.269531 22.664062 12.507812 22.816406 C 12.785156 23 13.183594 23.136719 13.707031 23.304688 L 13.753906 23.320312 C 14.1875 23.464844 14.722656 23.640625 15.144531 23.902344 C 15.621094 24.199219 16.0625 24.675781 16.0625 25.410156 C 16.0625 25.601562 16.007812 25.789062 15.957031 25.929688 C 15.902344 26.082031 15.832031 26.242188 15.75 26.402344 C 15.585938 26.722656 15.363281 27.085938 15.117188 27.445312 C 14.632812 28.164062 14.015625 28.9375 13.503906 29.429688 C 12.984375 29.929688 12.207031 30.488281 11.417969 30.925781 C 11.019531 31.148438 10.605469 31.34375 10.207031 31.488281 C 9.847656 31.617188 9.464844 31.71875 9.09375 31.734375 C 9.085938 31.738281 9.074219 31.742188 9.0625 31.75 C 9.046875 31.757812 9.03125 31.765625 9.015625 31.777344 L 9.007812 31.78125 C 9.011719 31.789062 9.011719 31.796875 9.011719 31.804688 C 9.015625 31.816406 9.019531 31.824219 9.023438 31.832031 C 9.039062 31.859375 9.0625 31.886719 9.15625 31.984375 L 9.179688 32.011719 C 9.34375 32.191406 9.757812 32.425781 10.40625 32.632812 C 11.027344 32.832031 11.761719 32.972656 12.453125 33.039062 C 12.800781 33.070312 13 33.289062 13.082031 33.40625 C 13.171875 33.523438 13.21875 33.652344 13.25 33.734375 C 13.304688 33.898438 13.347656 34.101562 13.382812 34.257812 L 13.386719 34.28125 C 13.433594 34.496094 13.472656 34.683594 13.523438 34.835938 C 13.542969 34.890625 13.5625 34.933594 13.574219 34.960938 C 13.609375 34.964844 13.660156 34.96875 13.730469 34.96875 C 14.050781 34.96875 14.371094 34.921875 14.683594 34.882812 C 15.191406 34.820312 15.816406 34.746094 16.476562 34.746094 C 18.011719 34.746094 19.023438 35.4375 20 36.105469 L 20.054688 36.144531 C 20.417969 36.390625 20.78125 36.640625 21.1875 36.878906 C 22.335938 37.558594 23.210938 37.554688 23.851562 37.550781 C 23.894531 37.550781 23.941406 37.550781 23.980469 37.550781 C 24.023438 37.550781 24.066406 37.550781 24.113281 37.550781 C 24.757812 37.554688 25.664062 37.558594 26.8125 36.878906 C 27.21875 36.640625 27.582031 36.390625 27.945312 36.144531 L 28 36.105469 C 28.976562 35.4375 29.988281 34.746094 31.523438 34.746094 C 32.183594 34.746094 32.808594 34.820312 33.316406 34.882812 L 33.328125 34.886719 C 33.738281 34.933594 34.035156 34.96875 34.269531 34.96875 C 34.339844 34.96875 34.390625 34.964844 34.425781 34.960938 C 34.4375 34.933594 34.457031 34.890625 34.476562 34.835938 C 34.527344 34.683594 34.566406 34.496094 34.613281 34.28125 L 34.617188 34.257812 C 34.652344 34.101562 34.695312 33.898438 34.75 33.734375 C 34.78125 33.652344 34.828125 33.523438 34.917969 33.40625 C 35 33.289062 35.199219 33.070312 35.546875 33.039062 C 36.238281 32.972656 36.972656 32.832031 37.59375 32.632812 C 38.242188 32.425781 38.65625 32.191406 38.820312 32.011719 L 38.84375 31.984375 C 38.9375 31.886719 38.960938 31.859375 38.976562 31.832031 C 38.980469 31.824219 38.984375 31.816406 38.988281 31.804688 C 38.988281 31.796875 38.988281 31.789062 38.992188 31.78125 L 38.984375 31.777344 C 38.96875 31.765625 38.953125 31.757812 38.9375 31.75 C 38.925781 31.742188 38.914062 31.738281 38.90625 31.734375 C 38.535156 31.71875 38.152344 31.617188 37.792969 31.488281 C 37.394531 31.34375 36.980469 31.148438 36.582031 30.925781 C 35.792969 30.488281 35.015625 29.929688 34.496094 29.429688 C 33.984375 28.9375 33.367188 28.164062 32.882812 27.445312 C 32.636719 27.085938 32.414062 26.722656 32.25 26.402344 C 32.167969 26.242188 32.097656 26.082031 32.042969 25.929688 C 31.992188 25.789062 31.9375 25.601562 31.9375 25.410156 C 31.9375 24.675781 32.378906 24.199219 32.855469 23.902344 C 33.277344 23.640625 33.8125 23.464844 34.246094 23.320312 L 34.292969 23.304688 C 34.816406 23.136719 35.214844 23 35.492188 22.816406 C 35.730469 22.664062 35.792969 22.539062 35.792969 22.367188 C 35.792969 22.28125 35.738281 22.128906 35.550781 21.976562 C 35.363281 21.828125 35.128906 21.742188 34.933594 21.742188 C 34.722656 21.742188 34.578125 21.804688 34.304688 21.9375 L 34.277344 21.949219 C 34.03125 22.066406 33.648438 22.253906 33.140625 22.253906 C 32.792969 22.253906 32.398438 22.152344 32.113281 21.847656 C 31.828125 21.546875 31.761719 21.167969 31.785156 20.84375 C 31.855469 19.863281 31.9375 18.496094 31.9375 17.511719 C 31.9375 16.445312 31.535156 14.660156 30.339844 13.15625 C 29.175781 11.6875 27.226562 10.449219 24.019531 10.449219 C 20.804688 10.449219 18.847656 11.6875 17.675781 13.160156 Z M 17.675781 13.160156 "/>
<path style=" stroke:none;fill-rule:evenodd;fill:rgb(100%,100%,100%);fill-opacity:1;" d="M 17.675781 13.160156 C 16.472656 14.664062 16.0625 16.449219 16.0625 17.511719 C 16.0625 18.496094 16.144531 19.863281 16.214844 20.84375 C 16.238281 21.167969 16.171875 21.546875 15.886719 21.847656 C 15.597656 22.152344 15.207031 22.253906 14.859375 22.253906 C 14.351562 22.253906 13.96875 22.066406 13.722656 21.949219 L 13.695312 21.9375 C 13.421875 21.804688 13.277344 21.742188 13.0625 21.742188 C 12.871094 21.742188 12.636719 21.828125 12.449219 21.976562 C 12.261719 22.128906 12.207031 22.28125 12.207031 22.367188 C 12.207031 22.539062 12.269531 22.664062 12.507812 22.816406 C 12.785156 23 13.183594 23.136719 13.707031 23.304688 L 13.75 23.320312 C 14.183594 23.464844 14.722656 23.640625 15.144531 23.902344 C 15.621094 24.199219 16.0625 24.675781 16.0625 25.410156 C 16.0625 25.601562 16.007812 25.789062 15.957031 25.929688 C 15.902344 26.082031 15.832031 26.242188 15.75 26.402344 C 15.582031 26.722656 15.363281 27.085938 15.117188 27.445312 C 14.632812 28.164062 14.015625 28.9375 13.503906 29.429688 C 12.984375 29.929688 12.207031 30.488281 11.417969 30.925781 C 11.019531 31.148438 10.605469 31.34375 10.207031 31.488281 C 9.847656 31.617188 9.460938 31.71875 9.09375 31.734375 C 9.082031 31.738281 9.074219 31.742188 9.0625 31.75 C 9.046875 31.757812 9.03125 31.765625 9.015625 31.777344 L 9.007812 31.78125 C 9.011719 31.789062 9.011719 31.796875 9.011719 31.804688 C 9.015625 31.816406 9.019531 31.824219 9.023438 31.832031 C 9.039062 31.859375 9.0625 31.886719 9.152344 31.984375 L 9.179688 32.011719 C 9.34375 32.191406 9.753906 32.425781 10.40625 32.632812 C 11.027344 32.832031 11.761719 32.972656 12.453125 33.039062 C 12.800781 33.070312 13 33.289062 13.082031 33.40625 C 13.171875 33.523438 13.21875 33.652344 13.25 33.738281 C 13.304688 33.898438 13.347656 34.101562 13.382812 34.257812 L 13.386719 34.28125 C 13.433594 34.496094 13.472656 34.683594 13.523438 34.835938 C 13.542969 34.890625 13.558594 34.933594 13.574219 34.964844 C 13.609375 34.964844 13.660156 34.96875 13.730469 34.96875 C 14.050781 34.96875 14.371094 34.921875 14.683594 34.882812 C 15.191406 34.824219 15.816406 34.746094 16.476562 34.746094 C 18.011719 34.746094 19.023438 35.4375 20 36.105469 L 20.054688 36.144531 C 20.417969 36.390625 20.78125 36.640625 21.1875 36.878906 C 22.335938 37.558594 23.210938 37.554688 23.851562 37.550781 C 23.894531 37.550781 23.9375 37.550781 23.980469 37.550781 C 24.023438 37.550781 24.066406 37.550781 24.113281 37.550781 C 24.757812 37.554688 25.664062 37.558594 26.8125 36.878906 C 27.21875 36.640625 27.582031 36.390625 27.945312 36.144531 L 28 36.105469 C 28.976562 35.4375 29.988281 34.746094 31.523438 34.746094 C 32.183594 34.746094 32.808594 34.824219 33.3125 34.882812 L 33.328125 34.886719 C 33.738281 34.933594 34.035156 34.96875 34.265625 34.96875 C 34.339844 34.96875 34.390625 34.964844 34.425781 34.964844 C 34.4375 34.933594 34.457031 34.890625 34.472656 34.835938 C 34.527344 34.683594 34.566406 34.496094 34.613281 34.28125 L 34.617188 34.257812 C 34.652344 34.101562 34.695312 33.898438 34.75 33.738281 C 34.777344 33.652344 34.828125 33.523438 34.914062 33.40625 C 35 33.289062 35.199219 33.070312 35.546875 33.039062 C 36.238281 32.972656 36.972656 32.832031 37.59375 32.632812 C 38.242188 32.425781 38.652344 32.191406 38.820312 32.011719 L 38.84375 31.984375 C 38.9375 31.886719 38.960938 31.859375 38.976562 31.832031 C 38.980469 31.824219 38.984375 31.816406 38.984375 31.804688 C 38.988281 31.796875 38.988281 31.789062 38.992188 31.78125 L 38.984375 31.777344 C 38.96875 31.765625 38.953125 31.757812 38.9375 31.75 C 38.925781 31.742188 38.914062 31.738281 38.90625 31.734375 C 38.535156 31.71875 38.152344 31.617188 37.792969 31.488281 C 37.394531 31.34375 36.980469 31.148438 36.582031 30.925781 C 35.792969 30.488281 35.015625 29.929688 34.496094 29.429688 C 33.984375 28.9375 33.367188 28.164062 32.882812 27.445312 C 32.636719 27.085938 32.414062 26.722656 32.25 26.402344 C 32.167969 26.242188 32.09375 26.082031 32.042969 25.929688 C 31.992188 25.789062 31.9375 25.601562 31.9375 25.410156 C 31.9375 24.675781 32.378906 24.199219 32.851562 23.902344 C 33.277344 23.640625 33.8125 23.464844 34.246094 23.320312 L 34.292969 23.304688 C 34.816406 23.136719 35.214844 23 35.492188 22.816406 C 35.730469 22.664062 35.792969 22.539062 35.792969 22.367188 C 35.792969 22.28125 35.738281 22.128906 35.550781 21.976562 C 35.363281 21.828125 35.128906 21.742188 34.933594 21.742188 C 34.722656 21.742188 34.578125 21.804688 34.304688 21.9375 L 34.277344 21.949219 C 34.03125 22.066406 33.644531 22.253906 33.140625 22.253906 C 32.792969 22.253906 32.398438 22.152344 32.113281 21.847656 C 31.828125 21.546875 31.761719 21.167969 31.785156 20.84375 C 31.855469 19.863281 31.9375 18.496094 31.9375 17.511719 C 31.9375 16.445312 31.535156 14.660156 30.339844 13.15625 C 29.175781 11.6875 27.226562 10.449219 24.015625 10.449219 C 20.804688 10.449219 18.847656 11.6875 17.675781 13.160156 Z M 17.675781 13.160156 "/>
</g>
</svg>
